HIERARCHY
ROOT Hips
{
	OFFSET 173.408295 91.952423 -518.280273
	CHANNELS 6 Xposition Yposition Zposition Zrotation Yrotation Xrotation 
	JOINT LeftUpLeg
	{
		OFFSET 0.103459 1.857827 10.548504
		CHANNELS 3 Zrotation Yrotation Xrotation
		JOINT LeftLeg
		{
			OFFSET 43.500008 0.000000 0.000004
			CHANNELS 3 Zrotation Yrotation Xrotation
			JOINT LeftFoot
			{
				OFFSET 42.372192 0.000011 0.000000
				CHANNELS 3 Zrotation Yrotation Xrotation
				JOINT LeftToe
				{
					OFFSET 17.299973 -0.000013 -0.000010
					CHANNELS 3 Zrotation Yrotation Xrotation
					End Site
					{
						OFFSET 0.000000 0.000000 0.000000
					}
				}
			}
		}
	}
	JOINT RightUpLeg
	{
		OFFSET 0.103454 1.857830 -10.548500
		CHANNELS 3 Zrotation Yrotation Xrotation
		JOINT RightLeg
		{
			OFFSET 43.500038 -0.000038 0.000004
			CHANNELS 3 Zrotation Yrotation Xrotation
			JOINT RightFoot
			{
				OFFSET 42.372253 0.000019 0.000024
				CHANNELS 3 Zrotation Yrotation Xrotation
				JOINT RightToe
				{
					OFFSET 17.299988 -0.000007 0.000004
					CHANNELS 3 Zrotation Yrotation Xrotation
					End Site
					{
						OFFSET 0.000000 0.000000 0.000000
					}
				}
			}
		}
	}
	JOINT Spine
	{
		OFFSET 6.901963 -2.603744 0.000004
		CHANNELS 3 Zrotation Yrotation Xrotation
		JOINT Spine1
		{
			OFFSET 12.588104 0.000008 -0.000010
			CHANNELS 3 Zrotation Yrotation Xrotation
			JOINT Spine2
			{
				OFFSET 12.343202 -0.000005 0.000010
				CHANNELS 3 Zrotation Yrotation Xrotation
				JOINT Neck
				{
					OFFSET 25.832897 0.000000 0.000001
					CHANNELS 3 Zrotation Yrotation Xrotation
					JOINT Head
					{
						OFFSET 11.766611 -0.000006 -0.000000
						CHANNELS 3 Zrotation Yrotation Xrotation
						End Site
						{
							OFFSET 0.000000 0.000000 0.000000
						}
					}
				}
				JOINT LeftShoulder
				{
					OFFSET 19.745899 -1.480366 6.000108
					CHANNELS 3 Zrotation Yrotation Xrotation
					JOINT LeftArm
					{
						OFFSET 11.284111 -0.000018 -0.000015
						CHANNELS 3 Zrotation Yrotation Xrotation
						JOINT LeftForeArm
						{
							OFFSET 33.000050 -0.000005 0.000028
							CHANNELS 3 Zrotation Yrotation Xrotation
							JOINT LeftHand
							{
								OFFSET 25.200012 0.000000 0.000002
								CHANNELS 3 Zrotation Yrotation Xrotation
								End Site
								{
									OFFSET 0.000000 0.000000 0.000000
								}
							}
						}
					}
				}
				JOINT RightShoulder
				{
					OFFSET 19.746111 -1.480335 -6.000074
					CHANNELS 3 Zrotation Yrotation Xrotation
					JOINT RightArm
					{
						OFFSET 11.284151 0.000036 0.000001
						CHANNELS 3 Zrotation Yrotation Xrotation
						JOINT RightForeArm
						{
							OFFSET 33.000092 -0.000035 0.000022
							CHANNELS 3 Zrotation Yrotation Xrotation
							JOINT RightHand
							{
								OFFSET 25.199768 0.000178 0.000417
								CHANNELS 3 Zrotation Yrotation Xrotation
								End Site
								{
									OFFSET 0.000000 0.000000 0.000000
								}
							}
						}
					}
				}
			}
		}
	}
}
MOTION
Frames: 10
Frame Time: 0.033333
-296.213501 88.278923 -93.396919 86.158602 -0.305844 97.180416 149.582727 -2.329104 174.954681 -12.161259 0.948520 2.687532 69.766114 -3.072855 -3.349038 21.454557 0.003075 -0.000003 -170.569358 -7.267593 -179.884520 -15.523903 5.498135 4.577551 81.340019 -4.156492 -3.615996 21.454560 -0.003105 -0.000020 6.576022 1.136105 2.288238 3.184280 2.209810 4.607225 2.867019 2.237713 4.593836 -7.592962 8.435172 -4.723035 22.981785 -11.832730 -2.585649 171.901340 -79.145725 6.684479 -9.616177 61.370725 40.567331 -41.929592 -8.823030 1.102015 -2.872448 -6.815723 18.673737 -166.599310 74.174256 15.154339 -19.607195 -49.669942 -29.011461 -39.024419 14.819311 -1.448501 2.823477 10.853092 -8.364100 
-296.072296 87.390549 -89.898376 85.691970 -0.844129 96.831722 148.354113 -2.548401 176.947375 -7.732817 -0.386435 2.764515 71.416601 -4.104314 -6.580849 21.454551 0.003078 -0.000003 -168.268486 -7.393801 179.253657 -14.484408 6.037889 4.192346 81.841499 -3.890617 -3.648574 21.454557 -0.003113 -0.000018 6.566939 1.026108 2.378918 3.163069 1.987860 4.785252 2.845956 2.016830 4.773197 -9.387814 7.007284 -4.304315 22.051691 -11.212380 -2.302604 175.921043 -78.121040 2.623471 -8.751801 59.589412 42.614667 -43.197545 -8.638422 1.124128 -3.306591 -8.592206 18.184726 -166.910712 74.163888 14.835287 -19.884009 -48.811103 -29.752587 -43.027019 15.465532 -1.598946 1.590234 11.401154 -8.831771 
-295.865601 86.540604 -86.366600 85.806499 -1.128225 96.714174 147.250518 -1.673493 178.134844 -8.302544 -0.231381 3.506914 70.249315 -4.797866 -6.782293 21.454551 0.003089 -0.000001 -166.068810 -6.979606 178.958688 -14.229812 6.443848 3.641629 82.204947 -3.488608 -3.552679 21.454555 -0.003101 -0.000018 6.651154 0.834060 2.355872 3.322912 1.601131 4.734821 3.005878 1.629787 4.725104 -11.348770 5.681608 -3.959222 21.117864 -10.866174 -2.105256 178.571730 -76.710305 -0.047689 -8.758427 58.141473 43.175265 -42.298702 -8.466428 1.088140 -3.615541 -9.968598 16.553129 -167.129811 73.985388 14.611296 -20.964941 -48.165572 -29.627749 -45.393482 15.817943 -1.691002 0.151946 11.575065 -9.688418 
-295.511414 85.762131 -82.512550 86.480030 -1.159579 96.639404 145.829183 0.029305 178.302853 -13.573779 0.548330 4.679985 65.267853 -4.135391 -1.924955 21.454557 0.003094 -0.000001 -164.014999 -6.143003 179.423674 -15.151619 6.395444 2.918856 81.635562 -2.901808 -3.049161 21.454558 -0.003110 -0.000017 6.744005 0.498626 2.300631 3.494029 0.928522 4.615199 3.177012 0.956487 4.609523 -12.862977 4.896296 -3.900677 20.305384 -10.790776 -2.108999 179.599578 -75.488507 -1.074601 -9.316940 57.504920 42.432216 -38.611742 -8.340922 0.984583 -3.706422 -10.216457 15.708371 -167.169099 73.800836 14.571683 -22.014475 -48.579297 -28.917740 -45.740981 16.109846 -1.720665 -1.188422 11.208313 -11.040051 
-295.017609 85.274567 -78.415947 88.158536 -1.140830 96.709113 145.430123 2.423203 178.165198 -18.193203 1.617903 4.715018 60.217441 -3.595983 -0.275609 21.454550 0.003085 -0.000003 -162.059147 -4.678298 -179.710828 -16.461919 5.684154 2.432111 79.412950 -2.399177 -2.131703 21.454562 -0.003104 -0.000021 6.796419 -0.133744 2.212260 3.573574 -0.334847 4.419404 3.256502 -0.308046 4.421350 -13.683583 4.918980 -4.245362 19.855952 -10.521265 -2.358758 179.362953 -74.830794 -0.820592 -10.330657 57.645663 40.324621 -32.488976 -8.133641 0.832471 -3.240347 -9.934798 16.770503 -166.610594 73.471778 15.145775 -22.626474 -50.486443 -27.506435 -44.224116 16.308538 -1.688754 -1.902460 10.706151 -12.827890 
-294.514313 85.103561 -74.251472 90.301617 -1.181051 96.861570 145.346630 4.660285 177.944391 -23.161153 2.182312 4.177076 59.909051 -3.811364 -1.588279 21.454553 0.003090 0.000001 -161.311036 -3.050906 -178.705370 -19.458881 4.442050 2.204440 75.059128 -1.804203 -0.335438 21.454560 -0.003113 -0.000019 6.804686 -0.944405 2.140485 3.560829 -1.953369 4.251914 3.243497 -1.927543 4.263601 -14.021931 5.532320 -4.899595 20.031381 -9.655582 -2.830322 178.069288 -74.800243 0.503919 -11.732006 58.243099 36.894674 -25.404248 -7.761899 0.680339 -1.834437 -10.350671 18.619145 -165.420010 73.138089 16.369349 -22.676201 -53.743443 -25.348160 -41.511902 16.146420 -1.601224 -1.487703 10.902027 -14.095152 
-294.095612 85.106880 -70.210426 91.953826 -1.249515 96.659908 145.529707 6.046794 176.868432 -27.981200 2.371456 4.043235 62.525423 -3.195505 -0.476630 21.454551 0.003082 0.000000 -162.843895 -1.442198 -177.752217 -25.937135 3.270669 1.735858 68.984965 -0.122703 3.563092 21.454550 -0.003109 -0.000017 6.788825 -1.637684 2.158919 3.504048 -3.339100 4.269730 3.186340 -3.313138 4.289790 -14.169573 6.121134 -5.513253 20.853223 -8.467701 -3.328189 176.565608 -75.105484 2.035683 -13.292407 58.956028 32.802807 -19.454211 -7.370051 0.575739 0.651210 -11.551890 18.885902 -164.593721 73.327299 17.216182 -22.061357 -57.446249 -23.509525 -38.771941 15.520169 -1.487636 0.380765 11.933259 -13.456806 
-293.728210 85.128632 -66.295670 92.601198 -1.098772 95.912781 145.954954 6.013303 174.799321 -32.586136 2.699494 4.564151 66.071808 -3.095148 0.710836 21.454551 0.003078 -0.000000 -166.642969 -0.169295 -176.607505 -36.319852 2.092151 0.536835 63.003448 2.029907 6.051344 21.454562 -0.003112 -0.000011 6.802495 -1.999136 2.218538 3.516648 -4.063847 4.378839 3.198713 -4.037213 4.403273 -14.191220 6.196415 -5.675297 21.961741 -7.621996 -3.545915 176.115881 -75.357388 2.489677 -14.417787 59.499800 29.260151 -16.358286 -7.211904 0.534888 3.616056 -12.268563 16.534811 -165.083282 74.151191 16.708255 -20.956499 -60.073460 -24.073885 -37.232112 14.617966 -1.390432 3.285582 12.476067 -10.849291 
-293.339203 84.854393 -62.613480 93.182304 -0.653974 94.793218 146.320520 5.840613 172.231935 -37.615600 3.462427 4.915508 70.269669 -2.931055 1.987040 21.454551 0.003095 -0.000000 -171.685684 1.617710 -175.229364 -48.548875 0.819249 -0.047325 58.405091 4.124409 8.861519 21.454553 -0.003112 -0.000014 6.918309 -2.211370 2.177088 3.742562 -4.491112 4.285651 3.424392 -4.465032 4.312675 -13.952378 5.883202 -5.286455 22.740539 -7.502354 -3.329201 176.347725 -75.563503 2.247886 -14.392686 59.817458 27.208072 -16.659330 -7.444720 0.552821 5.620008 -11.609560 13.116496 -166.455398 74.948021 15.298476 -20.099025 -60.463355 -27.839416 -37.603176 13.821936 -1.347799 5.458486 10.802497 -8.732432 
-292.898804 84.274208 -58.958370 94.023906 0.229099 93.643615 147.138503 6.030308 170.101340 -42.607256 4.208236 4.743053 74.362127 -2.646409 2.738007 21.454551 0.003095 0.000000 -176.803162 3.762205 -173.891576 -60.824986 -0.654732 0.356473 57.265255 4.826997 10.604483 21.454553 -0.003110 -0.000016 7.155362 -2.416681 1.986952 4.218406 -4.903447 3.888838 3.899855 -4.879757 3.918401 -13.380891 5.754883 -4.658647 22.809603 -8.148711 -2.802982 175.474581 -75.926316 3.131321 -13.078132 59.806414 27.084924 -19.651241 -7.882263 0.611571 5.644115 -10.327375 10.773840 -167.158170 75.020291 14.578810 -20.171825 -58.826862 -33.080362 -39.727956 13.492859 -1.380144 4.962513 6.850552 -10.497918 
